<svg xmlns="http://www.w3.org/2000/svg" width="37.5" viewBox="0 0 37.5 37.5" height="37.5" version="1.0"><defs><clipPath id="a"><path d="M 1.3125 1.3125 L 36.5625 1.3125 L 36.5625 36.5625 L 1.3125 36.5625 Z M 1.3125 1.3125"/></clipPath></defs><g clip-path="url(#a)"><path fill="#FFF" d="M 36.5625 18.9375 C 36.5625 19.515625 36.535156 20.089844 36.476562 20.664062 C 36.421875 21.238281 36.335938 21.808594 36.222656 22.375 C 36.109375 22.941406 35.972656 23.5 35.804688 24.054688 C 35.636719 24.605469 35.441406 25.148438 35.222656 25.683594 C 35 26.214844 34.753906 26.738281 34.480469 27.246094 C 34.210938 27.753906 33.914062 28.25 33.59375 28.730469 C 33.269531 29.210938 32.929688 29.671875 32.5625 30.117188 C 32.195312 30.566406 31.808594 30.992188 31.398438 31.398438 C 30.992188 31.808594 30.566406 32.195312 30.117188 32.5625 C 29.671875 32.929688 29.210938 33.269531 28.730469 33.59375 C 28.25 33.914062 27.753906 34.210938 27.246094 34.480469 C 26.738281 34.753906 26.214844 35 25.683594 35.222656 C 25.148438 35.441406 24.605469 35.636719 24.054688 35.804688 C 23.5 35.972656 22.941406 36.109375 22.375 36.222656 C 21.808594 36.335938 21.238281 36.421875 20.664062 36.476562 C 20.089844 36.535156 19.515625 36.5625 18.9375 36.5625 C 18.359375 36.5625 17.785156 36.535156 17.210938 36.476562 C 16.636719 36.421875 16.066406 36.335938 15.5 36.222656 C 14.933594 36.109375 14.375 35.972656 13.820312 35.804688 C 13.269531 35.636719 12.726562 35.441406 12.191406 35.222656 C 11.660156 35 11.136719 34.753906 10.628906 34.480469 C 10.121094 34.210938 9.625 33.914062 9.144531 33.59375 C 8.664062 33.269531 8.203125 32.929688 7.757812 32.5625 C 7.308594 32.195312 6.882812 31.808594 6.476562 31.398438 C 6.066406 30.992188 5.679688 30.566406 5.3125 30.117188 C 4.945312 29.671875 4.605469 29.210938 4.28125 28.730469 C 3.960938 28.25 3.664062 27.753906 3.394531 27.246094 C 3.121094 26.738281 2.875 26.214844 2.652344 25.683594 C 2.433594 25.148438 2.238281 24.605469 2.070312 24.054688 C 1.902344 23.5 1.765625 22.941406 1.652344 22.375 C 1.539062 21.808594 1.453125 21.238281 1.398438 20.664062 C 1.339844 20.089844 1.3125 19.515625 1.3125 18.9375 C 1.3125 18.359375 1.339844 17.785156 1.398438 17.210938 C 1.453125 16.636719 1.539062 16.066406 1.652344 15.5 C 1.765625 14.933594 1.902344 14.375 2.070312 13.820312 C 2.238281 13.269531 2.433594 12.726562 2.652344 12.191406 C 2.875 11.660156 3.121094 11.136719 3.394531 10.628906 C 3.664062 10.121094 3.960938 9.625 4.28125 9.144531 C 4.605469 8.664062 4.945312 8.203125 5.3125 7.757812 C 5.679688 7.308594 6.066406 6.882812 6.476562 6.476562 C 6.882812 6.066406 7.308594 5.679688 7.757812 5.3125 C 8.203125 4.945312 8.664062 4.605469 9.144531 4.28125 C 9.625 3.960938 10.121094 3.664062 10.628906 3.394531 C 11.136719 3.121094 11.660156 2.875 12.191406 2.652344 C 12.726562 2.433594 13.269531 2.238281 13.820312 2.070312 C 14.375 1.902344 14.933594 1.765625 15.5 1.652344 C 16.066406 1.539062 16.636719 1.453125 17.210938 1.398438 C 17.785156 1.339844 18.359375 1.3125 18.9375 1.3125 C 19.515625 1.3125 20.089844 1.339844 20.664062 1.398438 C 21.238281 1.453125 21.808594 1.539062 22.375 1.652344 C 22.941406 1.765625 23.5 1.902344 24.054688 2.070312 C 24.605469 2.238281 25.148438 2.433594 25.683594 2.652344 C 26.214844 2.875 26.738281 3.121094 27.246094 3.394531 C 27.753906 3.664062 28.25 3.960938 28.730469 4.28125 C 29.210938 4.605469 29.671875 4.945312 30.117188 5.3125 C 30.566406 5.679688 30.992188 6.066406 31.398438 6.476562 C 31.808594 6.882812 32.195312 7.308594 32.5625 7.757812 C 32.929688 8.203125 33.269531 8.664062 33.59375 9.144531 C 33.914062 9.625 34.210938 10.121094 34.480469 10.628906 C 34.753906 11.136719 35 11.660156 35.222656 12.191406 C 35.441406 12.726562 35.636719 13.269531 35.804688 13.820312 C 35.972656 14.375 36.109375 14.933594 36.222656 15.5 C 36.335938 16.066406 36.421875 16.636719 36.476562 17.210938 C 36.535156 17.785156 36.5625 18.359375 36.5625 18.9375 Z M 36.5625 18.9375"/></g><path fill="#FFF" d="M 15.835938 8.949219 C 13.273438 9.84375 11.066406 11.746094 9.84375 14.191406 C 9.421875 15.035156 9.113281 15.90625 8.925781 16.847656 C 8.457031 19.148438 8.785156 21.59375 9.84375 23.683594 C 10.523438 25.046875 11.511719 26.269531 12.710938 27.210938 C 13.839844 28.101562 15.152344 28.785156 16.539062 29.136719 C 18.304688 29.605469 20.183594 29.582031 21.945312 29.183594 C 23.542969 28.808594 25.070312 28.054688 26.292969 26.925781 C 27.585938 25.753906 28.476562 24.203125 28.972656 22.53125 C 29.488281 20.722656 29.558594 18.773438 29.230469 16.917969 C 25.917969 16.917969 22.601562 16.917969 19.289062 16.917969 C 19.289062 18.304688 19.289062 19.664062 19.289062 21.050781 C 21.21875 21.050781 23.121094 21.050781 25.046875 21.050781 C 24.835938 22.367188 24.035156 23.589844 22.933594 24.320312 C 22.226562 24.789062 21.429688 25.09375 20.605469 25.234375 C 19.785156 25.375 18.914062 25.398438 18.066406 25.234375 C 17.222656 25.070312 16.421875 24.71875 15.71875 24.203125 C 14.589844 23.402344 13.71875 22.25 13.296875 20.957031 C 12.851562 19.640625 12.851562 18.160156 13.296875 16.847656 C 13.625 15.929688 14.144531 15.058594 14.824219 14.355469 C 15.671875 13.484375 16.777344 12.851562 17.996094 12.59375 C 19.03125 12.382812 20.089844 12.40625 21.097656 12.710938 C 21.945312 12.96875 22.722656 13.4375 23.378906 14.050781 C 24.035156 13.390625 24.671875 12.757812 25.328125 12.097656 C 25.683594 11.746094 26.035156 11.417969 26.363281 11.066406 C 25.375 10.148438 24.226562 9.421875 22.957031 8.949219 C 20.675781 8.175781 18.136719 8.152344 15.835938 8.949219 Z M 15.835938 8.949219"/><path fill="#EA4335" d="M 15.835938 8.972656 C 18.113281 8.199219 20.675781 8.199219 22.957031 9.042969 C 24.203125 9.515625 25.375 10.21875 26.339844 11.160156 C 26.011719 11.511719 25.660156 11.839844 25.328125 12.191406 C 24.671875 12.851562 24.035156 13.484375 23.378906 14.144531 C 22.746094 13.53125 21.96875 13.0625 21.097656 12.804688 C 20.113281 12.5 19.007812 12.453125 17.996094 12.6875 C 16.824219 12.945312 15.695312 13.578125 14.847656 14.449219 C 14.167969 15.152344 13.625 16 13.320312 16.941406 C 12.167969 16.046875 11.019531 15.152344 9.867188 14.261719 C 11.089844 11.769531 13.273438 9.84375 15.835938 8.972656 Z M 15.835938 8.972656"/><path fill="#FBBC05" d="M 8.949219 16.847656 C 9.136719 15.929688 9.445312 15.035156 9.867188 14.191406 C 11.019531 15.082031 12.167969 15.976562 13.320312 16.871094 C 12.875 18.183594 12.875 19.664062 13.320312 20.980469 C 12.167969 21.875 11.019531 22.769531 9.867188 23.660156 C 8.808594 21.59375 8.480469 19.148438 8.949219 16.847656 Z M 8.949219 16.847656"/><path fill="#4285F4" d="M 19.289062 16.964844 C 22.601562 16.964844 25.917969 16.964844 29.230469 16.964844 C 29.558594 18.820312 29.488281 20.746094 28.972656 22.554688 C 28.476562 24.226562 27.585938 25.753906 26.292969 26.949219 C 25.164062 26.082031 24.058594 25.210938 22.933594 24.34375 C 24.035156 23.589844 24.8125 22.390625 25.046875 21.074219 C 23.121094 21.074219 21.21875 21.074219 19.289062 21.074219 C 19.289062 19.714844 19.289062 18.328125 19.289062 16.964844 Z M 19.289062 16.964844"/><path fill="#34A853" d="M 9.867188 23.683594 C 11.019531 22.792969 12.167969 21.898438 13.320312 21.003906 C 13.765625 22.296875 14.613281 23.449219 15.742188 24.25 C 16.445312 24.742188 17.246094 25.09375 18.089844 25.257812 C 18.914062 25.421875 19.785156 25.398438 20.605469 25.257812 C 21.429688 25.117188 22.226562 24.8125 22.933594 24.34375 C 24.058594 25.210938 25.164062 26.082031 26.292969 26.949219 C 25.070312 28.078125 23.566406 28.832031 21.96875 29.207031 C 20.207031 29.605469 18.328125 29.628906 16.5625 29.160156 C 15.175781 28.785156 13.863281 28.125 12.734375 27.234375 C 11.535156 26.269531 10.546875 25.023438 9.867188 23.683594 Z M 9.867188 23.683594"/></svg>