<svg xmlns="http://www.w3.org/2000/svg" width="187.5" viewBox="0 0 187.5 75" height="75" version="1.0"><g fill="#3B5998"><g><g><path d="M 24.859375 0 L 17.109375 0 L 10.859375 -9.109375 C 10.742188 -9.265625 10.648438 -9.5 10.578125 -9.8125 C 10.503906 -10.132812 10.457031 -10.5625 10.4375 -11.09375 L 10.265625 -11.09375 L 10.265625 0 L 2.046875 0 L 2.046875 -25.671875 L 9.796875 -25.671875 L 16.0625 -16.5625 C 16.175781 -16.40625 16.265625 -16.164062 16.328125 -15.84375 C 16.398438 -15.53125 16.445312 -15.109375 16.46875 -14.578125 L 16.640625 -14.578125 L 16.640625 -25.671875 L 24.859375 -25.671875 Z M 24.859375 0" transform="translate(1.95 43.07)"/></g></g></g><g fill="#3B5998"><g><g><path d="M 10.0625 -6.984375 L 10.0625 -5.546875 C 10.476562 -5.503906 10.890625 -5.46875 11.296875 -5.4375 C 11.703125 -5.414062 12.113281 -5.40625 12.53125 -5.40625 C 15.082031 -5.40625 17.660156 -5.816406 20.265625 -6.640625 L 21.21875 -0.609375 C 18.144531 0.203125 15.113281 0.609375 12.125 0.609375 C 8.289062 0.609375 5.515625 -0.285156 3.796875 -2.078125 C 2.085938 -3.867188 1.234375 -6.597656 1.234375 -10.265625 C 1.234375 -13.941406 2.09375 -16.675781 3.8125 -18.46875 C 5.539062 -20.257812 8.3125 -21.15625 12.125 -21.15625 C 14.039062 -21.15625 15.632812 -21.035156 16.90625 -20.796875 C 18.1875 -20.554688 19.21875 -20.15625 20 -19.59375 C 20.789062 -19.039062 21.351562 -18.289062 21.6875 -17.34375 C 22.019531 -16.394531 22.1875 -15.203125 22.1875 -13.765625 C 22.1875 -12.578125 21.984375 -11.554688 21.578125 -10.703125 C 21.179688 -9.847656 20.515625 -9.144531 19.578125 -8.59375 C 18.640625 -8.039062 17.394531 -7.632812 15.84375 -7.375 C 14.289062 -7.113281 12.363281 -6.984375 10.0625 -6.984375 Z M 10.0625 -13.421875 L 10.0625 -11.75 L 11.75 -11.75 C 12.75 -11.75 13.46875 -11.847656 13.90625 -12.046875 C 14.351562 -12.253906 14.578125 -12.734375 14.578125 -13.484375 L 14.578125 -15.171875 L 12.90625 -15.171875 C 11.90625 -15.171875 11.179688 -15.066406 10.734375 -14.859375 C 10.285156 -14.648438 10.0625 -14.171875 10.0625 -13.421875 Z M 10.0625 -13.421875" transform="translate(27.144 43.07)"/></g></g></g><g fill="#3B5998"><g><g><path d="M 2.046875 -20.546875 L 6.15625 -20.546875 L 8.21875 -18.484375 C 10.75 -20.265625 13.488281 -21.15625 16.4375 -21.15625 C 18.375 -21.15625 19.882812 -20.738281 20.96875 -19.90625 C 22.050781 -19.070312 22.59375 -17.914062 22.59375 -16.4375 L 22.59375 0 L 14.375 0 L 14.375 -14.375 L 13.109375 -14.375 C 12.171875 -14.375 11.460938 -14.273438 10.984375 -14.078125 C 10.503906 -13.890625 10.265625 -13.460938 10.265625 -12.796875 L 10.265625 0 L 2.046875 0 Z M 2.046875 -20.546875" transform="translate(48.64 43.07)"/></g></g></g><g fill="#3B5998"><g><g><path d="M 22.390625 -27.3125 L 22.390625 0 L 18.28125 0 L 16.5 -1.71875 C 15.332031 -0.164062 13.1875 0.609375 10.0625 0.609375 C 8.414062 0.609375 7.035156 0.316406 5.921875 -0.265625 C 4.804688 -0.859375 3.898438 -1.648438 3.203125 -2.640625 C 2.503906 -3.640625 2 -4.800781 1.6875 -6.125 C 1.382812 -7.445312 1.234375 -8.828125 1.234375 -10.265625 C 1.234375 -11.640625 1.367188 -12.945312 1.640625 -14.1875 C 1.910156 -15.4375 2.363281 -16.523438 3 -17.453125 C 3.644531 -18.390625 4.492188 -19.140625 5.546875 -19.703125 C 6.597656 -20.265625 7.898438 -20.546875 9.453125 -20.546875 L 14.171875 -20.546875 L 14.171875 -26.703125 Z M 10.0625 -13.421875 L 10.0625 -5.375 L 11.328125 -5.375 C 12.265625 -5.375 12.953125 -5.457031 13.390625 -5.625 C 13.835938 -5.800781 14.097656 -6.207031 14.171875 -6.84375 L 14.171875 -15.171875 L 12.90625 -15.171875 C 11.90625 -15.171875 11.179688 -15.066406 10.734375 -14.859375 C 10.285156 -14.648438 10.0625 -14.171875 10.0625 -13.421875 Z M 10.0625 -13.421875" transform="translate(71.368 43.07)"/></g></g></g><g fill="#3B5998"><g><g><path d="M 1.234375 -10.265625 C 1.234375 -13.941406 2.085938 -16.675781 3.796875 -18.46875 C 5.515625 -20.257812 8.289062 -21.15625 12.125 -21.15625 C 15.957031 -21.15625 18.726562 -20.257812 20.4375 -18.46875 C 22.144531 -16.675781 23 -13.941406 23 -10.265625 C 23 -6.597656 22.144531 -3.867188 20.4375 -2.078125 C 18.726562 -0.285156 15.957031 0.609375 12.125 0.609375 C 8.375 0.609375 5.617188 -0.265625 3.859375 -2.015625 C 2.109375 -3.773438 1.234375 -6.523438 1.234375 -10.265625 Z M 10.0625 -13.421875 L 10.0625 -5.375 L 11.328125 -5.375 C 12.335938 -5.375 13.0625 -5.472656 13.5 -5.671875 C 13.945312 -5.878906 14.171875 -6.363281 14.171875 -7.125 L 14.171875 -15.171875 L 12.90625 -15.171875 C 11.90625 -15.171875 11.179688 -15.066406 10.734375 -14.859375 C 10.285156 -14.648438 10.0625 -14.171875 10.0625 -13.421875 Z M 10.0625 -13.421875" transform="translate(94.097 43.07)"/></g></g></g><g fill="#3B5998"><g><g><path d="M 20 -8.5625 L 24.4375 0 L 15.40625 0 L 12.046875 -7.640625 L 10.265625 -7.640625 L 10.265625 0 L 2.046875 0 L 2.046875 -25.671875 L 15 -25.671875 C 20.882812 -25.671875 23.828125 -22.671875 23.828125 -16.671875 C 23.828125 -12.566406 22.550781 -9.863281 20 -8.5625 Z M 12.15625 -19.109375 L 10.265625 -19.109375 L 10.265625 -13.96875 L 12.15625 -13.96875 C 13.15625 -13.96875 13.878906 -14.066406 14.328125 -14.265625 C 14.773438 -14.472656 15 -14.941406 15 -15.671875 L 15 -17.390625 C 15 -18.117188 14.773438 -18.585938 14.328125 -18.796875 C 13.878906 -19.003906 13.15625 -19.109375 12.15625 -19.109375 Z M 12.15625 -19.109375" transform="translate(116.62 43.07)"/></g></g></g><g fill="#3B5998"><g><g><path d="M 1.234375 -10.265625 C 1.234375 -13.941406 2.085938 -16.675781 3.796875 -18.46875 C 5.515625 -20.257812 8.289062 -21.15625 12.125 -21.15625 C 15.957031 -21.15625 18.726562 -20.257812 20.4375 -18.46875 C 22.144531 -16.675781 23 -13.941406 23 -10.265625 C 23 -6.597656 22.144531 -3.867188 20.4375 -2.078125 C 18.726562 -0.285156 15.957031 0.609375 12.125 0.609375 C 8.375 0.609375 5.617188 -0.265625 3.859375 -2.015625 C 2.109375 -3.773438 1.234375 -6.523438 1.234375 -10.265625 Z M 10.0625 -13.421875 L 10.0625 -5.375 L 11.328125 -5.375 C 12.335938 -5.375 13.0625 -5.472656 13.5 -5.671875 C 13.945312 -5.878906 14.171875 -6.363281 14.171875 -7.125 L 14.171875 -15.171875 L 12.90625 -15.171875 C 11.90625 -15.171875 11.179688 -15.066406 10.734375 -14.859375 C 10.285156 -14.648438 10.0625 -14.171875 10.0625 -13.421875 Z M 10.0625 -13.421875" transform="translate(140.17 43.07)"/></g></g></g><g fill="#3B5998"><g><g><path d="M 1.234375 -10.265625 C 1.234375 -13.941406 2.085938 -16.675781 3.796875 -18.46875 C 5.515625 -20.257812 8.289062 -21.15625 12.125 -21.15625 C 15.957031 -21.15625 18.726562 -20.257812 20.4375 -18.46875 C 22.144531 -16.675781 23 -13.941406 23 -10.265625 C 23 -6.597656 22.144531 -3.867188 20.4375 -2.078125 C 18.726562 -0.285156 15.957031 0.609375 12.125 0.609375 C 8.375 0.609375 5.617188 -0.265625 3.859375 -2.015625 C 2.109375 -3.773438 1.234375 -6.523438 1.234375 -10.265625 Z M 10.0625 -13.421875 L 10.0625 -5.375 L 11.328125 -5.375 C 12.335938 -5.375 13.0625 -5.472656 13.5 -5.671875 C 13.945312 -5.878906 14.171875 -6.363281 14.171875 -7.125 L 14.171875 -15.171875 L 12.90625 -15.171875 C 11.90625 -15.171875 11.179688 -15.066406 10.734375 -14.859375 C 10.285156 -14.648438 10.0625 -14.171875 10.0625 -13.421875 Z M 10.0625 -13.421875" transform="translate(162.693 43.07)"/></g></g></g><g fill="#737373"><g><g><path d="M 0.953125 -7.921875 C 1.671875 -7.921875 2.265625 -7.960938 2.734375 -8.046875 C 3.203125 -8.140625 3.582031 -8.316406 3.875 -8.578125 L 1.09375 -8.578125 L 1.09375 -10.21875 L 10.375 -10.21875 L 10.375 -8.578125 L 7.59375 -8.578125 C 7.882812 -8.316406 8.265625 -8.140625 8.734375 -8.046875 C 9.203125 -7.960938 9.796875 -7.921875 10.515625 -7.921875 L 10.234375 -6.421875 C 9.222656 -6.421875 8.34375 -6.492188 7.59375 -6.640625 C 6.84375 -6.796875 6.222656 -7.046875 5.734375 -7.390625 C 5.242188 -7.046875 4.625 -6.796875 3.875 -6.640625 C 3.125 -6.492188 2.242188 -6.421875 1.234375 -6.421875 Z M 7.015625 -4.296875 L 7.015625 -3.84375 L 8.234375 -3.84375 C 8.867188 -3.84375 9.382812 -3.671875 9.78125 -3.328125 C 10.175781 -2.984375 10.375 -2.515625 10.375 -1.921875 C 10.375 -1.328125 10.175781 -0.859375 9.78125 -0.515625 C 9.382812 -0.171875 8.867188 0 8.234375 0 L 3.234375 0 C 2.597656 0 2.082031 -0.171875 1.6875 -0.515625 C 1.289062 -0.859375 1.09375 -1.328125 1.09375 -1.921875 C 1.09375 -2.515625 1.289062 -2.984375 1.6875 -3.328125 C 2.082031 -3.671875 2.597656 -3.84375 3.234375 -3.84375 L 4.453125 -3.84375 L 4.453125 -4.296875 L 0.8125 -4.296875 L 0.8125 -5.9375 L 10.640625 -5.9375 L 10.640625 -4.296875 Z M 7.8125 -1.921875 C 7.8125 -1.992188 7.785156 -2.054688 7.734375 -2.109375 C 7.679688 -2.160156 7.617188 -2.1875 7.546875 -2.1875 L 3.921875 -2.1875 C 3.847656 -2.1875 3.785156 -2.160156 3.734375 -2.109375 C 3.679688 -2.054688 3.65625 -1.992188 3.65625 -1.921875 C 3.65625 -1.847656 3.679688 -1.785156 3.734375 -1.734375 C 3.785156 -1.691406 3.847656 -1.671875 3.921875 -1.671875 L 7.546875 -1.671875 C 7.617188 -1.671875 7.679688 -1.691406 7.734375 -1.734375 C 7.785156 -1.785156 7.8125 -1.847656 7.8125 -1.921875 Z M 7.8125 -1.921875" transform="translate(1.95 57.857)"/></g></g></g><g fill="#737373"><g><g><path d="M 7.8125 -8.1875 L 7.8125 -4.09375 L 10.234375 -4.09375 L 10.375 -10.234375 L 1.09375 -10.234375 L 1.09375 -8.1875 Z M 6.015625 -2.453125 L 6.015625 -6.140625 L 3.453125 -6.140625 L 3.453125 -2.453125 L 0.8125 -2.453125 L 0.8125 -0.40625 L 10.65625 -0.40625 L 10.65625 -2.453125 Z M 6.015625 -2.453125" transform="translate(12.72 57.857)"/></g></g></g><g fill="#737373"><g><g><path d="M 7.8125 -10.375 L 10.375 -10.375 L 10.375 0 L 7.8125 0 Z M 0.8125 -8.1875 L 0.8125 -10.234375 L 6.9375 -10.234375 L 6.9375 -8.1875 Z M 6.53125 -7.640625 L 6.4375 -2.46875 L 6.9375 -2.46875 L 6.9375 -0.40625 L 0.8125 -0.40625 L 0.8125 -2.46875 L 1.328125 -2.46875 L 1.234375 -7.640625 L 3.515625 -7.640625 L 3.625 -2.46875 L 4.140625 -2.46875 L 4.234375 -7.640625 Z M 6.53125 -7.640625" transform="translate(26.916 57.857)"/></g></g></g><g fill="#737373"><g><g><path d="M 7.8125 -8.1875 L 7.8125 -5.625 L 10.234375 -5.625 L 10.375 -10.234375 L 1.09375 -10.234375 L 1.09375 -8.1875 Z M 10.65625 -4.609375 L 0.8125 -4.609375 L 0.8125 -2.546875 L 2.4375 -2.546875 L 2.4375 0 L 4.859375 0 L 5 -2.546875 L 6.46875 -2.546875 L 6.46875 0 L 9.03125 0 L 9.03125 -2.546875 L 10.65625 -2.546875 Z M 10.65625 -4.609375" transform="translate(37.426 57.857)"/></g></g></g><g fill="#737373"><g><g><path d="M 10.375 -10.375 L 10.375 0 L 7.8125 0 L 7.8125 -4.390625 L 6.96875 -4.390625 L 6.96875 -3.203125 C 6.96875 -2.191406 6.707031 -1.425781 6.1875 -0.90625 C 5.664062 -0.394531 4.898438 -0.140625 3.890625 -0.140625 C 2.878906 -0.140625 2.113281 -0.394531 1.59375 -0.90625 C 1.070312 -1.425781 0.8125 -2.191406 0.8125 -3.203125 L 0.8125 -7.3125 C 0.8125 -8.320312 1.070312 -9.082031 1.59375 -9.59375 C 2.113281 -10.113281 2.878906 -10.375 3.890625 -10.375 C 4.898438 -10.375 5.664062 -10.113281 6.1875 -9.59375 C 6.707031 -9.082031 6.96875 -8.320312 6.96875 -7.3125 L 6.96875 -6.4375 L 7.8125 -6.4375 L 7.8125 -10.375 Z M 4.375 -7.859375 C 4.375 -8.171875 4.210938 -8.328125 3.890625 -8.328125 C 3.566406 -8.328125 3.40625 -8.171875 3.40625 -7.859375 L 3.40625 -2.65625 C 3.40625 -2.34375 3.566406 -2.1875 3.890625 -2.1875 C 4.210938 -2.1875 4.375 -2.34375 4.375 -2.65625 Z M 4.375 -7.859375" transform="translate(48.21 57.857)"/></g></g></g><g fill="#737373"><g><g><path d="M 10.375 -10.40625 L 10.375 0 L 7.8125 0 L 7.8125 -4.390625 L 6.375 -4.390625 L 6.375 -5.546875 C 6.132812 -4.484375 5.757812 -3.566406 5.25 -2.796875 C 4.75 -2.023438 4.128906 -1.429688 3.390625 -1.015625 C 2.660156 -0.609375 1.847656 -0.40625 0.953125 -0.40625 L 0.6875 -2.453125 C 1.1875 -2.453125 1.691406 -2.628906 2.203125 -2.984375 C 2.722656 -3.335938 3.164062 -3.945312 3.53125 -4.8125 C 3.894531 -5.675781 4.078125 -6.8125 4.078125 -8.21875 L 0.8125 -8.21875 L 0.8125 -10.265625 L 6.65625 -10.265625 L 6.65625 -8.21875 C 6.65625 -7.59375 6.613281 -7 6.53125 -6.4375 L 7.8125 -6.4375 L 7.8125 -10.40625 Z M 10.375 -10.40625" transform="translate(62.132 57.857)"/></g></g></g><g fill="#737373"><g><g><path d="M 8.5 -10.375 L 10.921875 -10.375 L 10.921875 0 L 8.5 0 L 8.5 -4.234375 L 8.078125 -4.234375 L 8.078125 -0.140625 L 5.640625 -0.140625 L 5.640625 -10.375 L 8.078125 -10.375 L 8.078125 -6.28125 L 8.5 -6.28125 Z M 3.25 -4.390625 L 3.25 -2.453125 L 5.140625 -2.453125 L 5.140625 -0.40625 L 0.8125 -0.40625 L 0.8125 -6.4375 L 2.53125 -6.4375 L 2.53125 -8.203125 L 0.8125 -8.203125 L 0.8125 -10.265625 L 4.9375 -10.265625 L 4.9375 -4.390625 Z M 3.25 -4.390625" transform="translate(72.643 57.857)"/></g></g></g><g fill="#737373"><g><g><path d="M 5.734375 -6.484375 C 4.765625 -5.328125 3.304688 -4.671875 1.359375 -4.515625 L 0.8125 -6.4375 C 1.894531 -6.519531 2.757812 -6.851562 3.40625 -7.4375 C 4.050781 -8.019531 4.398438 -9 4.453125 -10.375 L 7.015625 -10.375 C 7.066406 -9 7.414062 -8.019531 8.0625 -7.4375 C 8.71875 -6.851562 9.582031 -6.519531 10.65625 -6.4375 L 10.109375 -4.515625 C 8.160156 -4.671875 6.703125 -5.328125 5.734375 -6.484375 Z M 7.03125 -4.375 L 7.03125 -2.453125 L 10.65625 -2.453125 L 10.65625 -0.40625 L 0.8125 -0.40625 L 0.8125 -2.453125 L 4.4375 -2.453125 L 4.4375 -4.375 Z M 7.03125 -4.375" transform="translate(83.699 57.857)"/></g></g></g><g fill="#737373"><g><g><path d="M 0.546875 0.546875 L 2.59375 0.546875 L 3.140625 -2.15625 L 0.953125 -2.15625 Z M 0.546875 0.546875" transform="translate(94.482 57.857)"/></g></g></g><g fill="#737373"><g><g><path d="M 7.78125 -10.375 L 5.359375 -10.375 L 5.359375 -9.015625 L 4.328125 -9.015625 L 4.328125 -6.96875 L 5.359375 -6.96875 L 5.359375 -3.625 L 7.78125 -3.625 Z M 10.65625 -10.375 L 8.21875 -10.375 L 8.21875 -3.34375 L 10.65625 -3.34375 Z M 0.8125 -4.5 L 4.875 -4.5 L 4.875 -6.5625 L 3.25 -6.5625 L 3.25 -10.234375 L 0.8125 -10.234375 Z M 3.9375 -2.046875 L 3.9375 -3.890625 L 1.359375 -3.890625 L 1.359375 0 L 10.65625 0 L 10.65625 -2.046875 Z M 3.9375 -2.046875" transform="translate(104.305 57.857)"/></g></g></g><g fill="#737373"><g><g><path d="M 3.65625 -6.4375 L 3.65625 -8.21875 L 10.375 -8.21875 L 10.375 -10.265625 L 1.09375 -10.265625 L 1.09375 -4.390625 L 10.375 -4.390625 L 10.375 -6.4375 Z M 7.15625 -2.453125 L 7.15625 -3.96875 L 4.59375 -3.96875 L 4.59375 -2.453125 L 0.8125 -2.453125 L 0.8125 -0.40625 L 10.65625 -0.40625 L 10.65625 -2.453125 Z M 7.15625 -2.453125" transform="translate(115.088 57.857)"/></g></g></g><g fill="#737373"><g><g><path d="M 1.09375 -7.953125 L 1.09375 -3.828125 L 10.453125 -3.828125 L 10.453125 -5.640625 L 3.671875 -5.640625 L 3.671875 -6.125 L 10.453125 -6.125 L 10.453125 -10.234375 L 1.09375 -10.234375 L 1.09375 -8.421875 L 7.859375 -8.421875 L 7.859375 -7.953125 Z M 10.71875 -3.328125 L 0.8125 -3.328125 L 0.8125 -1.375 L 4.484375 -1.375 L 4.484375 0 L 7.0625 0 L 7.0625 -1.375 L 10.71875 -1.375 Z M 10.71875 -3.328125" transform="translate(125.872 57.857)"/></g></g></g></svg>